<svg xmlns="http://www.w3.org/2000/svg" id="Layer_2" viewBox="0 0 302.46 135.52"><defs><style>.cls-1{fill:#fdf5e3;}.cls-2{fill:#adc9b8;}</style></defs><g id="Layer_1-2"><path class="cls-1" d="m32.16,84.48l-6.03,6.02c-2.02-2.01-4.66-3.02-7.3-3.02-5.55,0-10.32,4.77-10.32,10.32s4.77,10.32,10.32,10.32c4.08,0,7.85-2.67,9.39-6.04h-10.22v-8.52h19.18c.32,1.39.48,2.82.48,4.24,0,10.13-8.7,18.84-18.84,18.84S0,107.94,0,97.8s8.7-18.84,18.84-18.84c4.82,0,9.64,1.84,13.32,5.52Z"></path><path class="cls-1" d="m40.38,87.01h8.52v3.17c2.11-2.39,5.36-3.64,10.27-3.64v8.52c-6.28,0-10.27,1.31-10.27,9.09v11.78h-8.52v-28.92Z"></path><path class="cls-1" d="m76.32,108.86c1.78,0,3.54-.62,4.74-1.82l5.11,5.11c-2.93,2.93-6.77,4.39-10.61,4.39-8.07,0-15-6.93-15-15s6.17-15,14.91-15c7.38,0,15.08,5.6,15.08,14.97,0,1.28-.16,2.56-.49,3.8h-19.76c1.15,2.39,3.6,3.54,6.02,3.54Zm-.75-14.63c-2.44,0-4.88,1.61-5.98,4.82h11.97c-1.11-3.21-3.55-4.82-5.99-4.82Z"></path><path class="cls-1" d="m107.92,108.86c1.78,0,3.54-.62,4.74-1.82l5.11,5.11c-2.93,2.93-6.77,4.39-10.61,4.39-8.07,0-15-6.93-15-15s6.17-15,14.91-15c7.38,0,15.08,5.6,15.08,14.97,0,1.28-.16,2.56-.49,3.8h-19.76c1.15,2.39,3.6,3.54,6.02,3.54Zm-.75-14.63c-2.44,0-4.88,1.61-5.98,4.82h11.97c-1.11-3.21-3.55-4.82-5.99-4.82Z"></path><path class="cls-1" d="m144.56,101.2c0-4.95-2.62-7.21-5.32-7.21-2.88,0-5.85,2.57-5.85,7.21v14.73h-8.52v-28.92h8.52v2.42c2.31-2.13,5.19-3.22,8.05-3.22,5.99,0,11.83,4.81,11.83,14.99v14.73s-8.7,0-8.7,0v-14.73Z"></path><path class="cls-1" d="m182.27,79.72h9.34l-16.68,38.04-16.67-38.04h9.33l7.34,17.94,7.34-17.94Z"></path><path class="cls-1" d="m200.37,93.35c-2.36,0-5.39.27-7.47,2.29l-4.83-4.66c2.95-2.88,7.77-4.55,12.54-4.55,9.68,0,15.36,5.93,15.36,15.59v13.86h-8.52v-3.62c-2.67,2.5-6.37,4.37-10.68,4.37-5.9,0-9.21-4.19-9.21-8.75,0-8.44,8.69-9.46,16.12-9.46,1.14,0,2.26.02,3.31.05-1.04-3.49-3.68-5.13-6.61-5.13Zm2.92,11.1c-3.38,0-7.58.3-7.58,3.32,0,1.34,1.13,2.66,3.4,2.66,3.04,0,6.26-1.62,8.35-3.47v-2.34c-1.21-.08-2.68-.17-4.16-.17Z"></path><path class="cls-1" d="m220.58,77.83h8.52v38.11h-8.52v-38.11Z"></path><path class="cls-1" d="m232.91,77.83h8.52v38.11h-8.52v-38.11Z"></path><path class="cls-1" d="m259.9,108.86c1.78,0,3.54-.62,4.74-1.82l5.11,5.11c-2.93,2.93-6.77,4.39-10.61,4.39-8.07,0-15-6.93-15-15s6.17-15,14.91-15c7.38,0,15.08,5.6,15.08,14.97,0,1.28-.16,2.56-.49,3.8h-19.76c1.15,2.39,3.6,3.54,6.02,3.54Zm-.75-14.63c-2.44,0-4.88,1.61-5.98,4.82h11.97c-1.11-3.21-3.55-4.82-5.99-4.82Z"></path><path class="cls-1" d="m273.74,117.78c.19.01.37.02.55.02,4.55,0,6.5-3.86,8.5-7.42l-10.31-23.37h8.42l6.39,14.49c2.71-5.75,5.19-11.58,6.55-14.49h8.61c-4.06,8.72-10.56,25.28-16.07,32.39-2.93,3.8-6.64,6.37-11.98,6.37-.88,0-1.8-.07-2.76-.21l2.09-7.77Z"></path><path class="cls-1" d="m44,126.27h4.04c1.14,0,2.03.34,2.62.91.48.49.75,1.17.75,1.96v.03c0,1.49-.89,2.38-2.15,2.75l2.45,3.43h-1.89l-2.23-3.16h-1.99v3.16h-1.59v-9.07Zm3.92,4.5c1.14,0,1.87-.6,1.87-1.52v-.03c0-.97-.7-1.5-1.88-1.5h-2.32v3.04h2.33Z"></path><path class="cls-1" d="m54.18,130.83v-.03c0-2.55,1.97-4.69,4.75-4.69s4.73,2.11,4.73,4.66v.03c0,2.55-1.97,4.69-4.75,4.69s-4.73-2.11-4.73-4.66Zm7.81,0v-.03c0-1.76-1.28-3.23-3.08-3.23s-3.06,1.44-3.06,3.2v.03c0,1.76,1.28,3.21,3.08,3.21s3.06-1.42,3.06-3.19Z"></path><path class="cls-1" d="m66.4,130.83v-.03c0-2.55,1.97-4.69,4.75-4.69s4.73,2.11,4.73,4.66v.03c0,2.55-1.97,4.69-4.75,4.69s-4.73-2.11-4.73-4.66Zm7.81,0v-.03c0-1.76-1.28-3.23-3.08-3.23s-3.06,1.44-3.06,3.2v.03c0,1.76,1.28,3.21,3.08,3.21s3.06-1.42,3.06-3.19Z"></path><path class="cls-1" d="m79.03,126.27h6.75v1.45h-5.16v2.47h4.57v1.45h-4.57v3.69h-1.59v-9.07Z"></path><path class="cls-1" d="m88.83,126.27h1.59v9.07h-1.59v-9.07Z"></path><path class="cls-1" d="m94.06,126.27h1.48l4.86,6.27v-6.27h1.57v9.07h-1.33l-5-6.45v6.45h-1.57v-9.07Z"></path><path class="cls-1" d="m105.11,130.83v-.03c0-2.54,1.94-4.69,4.68-4.69,1.58,0,2.55.44,3.48,1.23l-1.01,1.21c-.7-.6-1.39-.97-2.54-.97-1.67,0-2.94,1.46-2.94,3.2v.03c0,1.87,1.23,3.24,3.08,3.24.86,0,1.63-.27,2.19-.69v-1.7h-2.32v-1.39h3.86v3.81c-.89.76-2.18,1.41-3.78,1.41-2.84,0-4.7-2.02-4.7-4.66Z"></path><path class="cls-1" d="m127.06,134.29c-.78.73-1.68,1.18-2.77,1.18-1.7,0-2.97-1.02-2.97-2.59v-.03c0-1.17.69-2.01,1.93-2.54-.52-.66-.75-1.23-.75-1.89v-.03c0-1.22.98-2.28,2.6-2.28,1.44,0,2.41.97,2.41,2.19v.03c0,1.19-.79,1.9-2,2.36l1.55,1.58c.35-.52.67-1.11.97-1.75l1.21.63c-.36.73-.76,1.44-1.23,2.06l1.44,1.45-1.19.86-1.21-1.23Zm-.91-.93l-2.02-2.06c-.84.36-1.21.92-1.21,1.5v.03c0,.76.63,1.32,1.52,1.32.62,0,1.19-.3,1.71-.79Zm-.05-4.94v-.03c0-.61-.43-1.02-1.02-1.02-.65,0-1.09.45-1.09,1.09v.03c0,.45.18.79.69,1.35.93-.34,1.42-.76,1.42-1.41Z"></path><path class="cls-1" d="m136.92,130.83v-.03c0-2.58,1.93-4.69,4.68-4.69,1.67,0,2.68.58,3.55,1.41l-1.02,1.18c-.73-.67-1.5-1.13-2.54-1.13-1.72,0-2.99,1.42-2.99,3.2v.03c0,1.78,1.26,3.21,2.99,3.21,1.11,0,1.83-.44,2.6-1.17l1.02,1.04c-.95.98-1.98,1.61-3.68,1.61-2.64,0-4.61-2.06-4.61-4.66Z"></path><path class="cls-1" d="m147.43,130.83v-.03c0-2.55,1.97-4.69,4.75-4.69s4.73,2.11,4.73,4.66v.03c0,2.55-1.97,4.69-4.75,4.69s-4.73-2.11-4.73-4.66Zm7.81,0v-.03c0-1.76-1.28-3.23-3.08-3.23s-3.06,1.44-3.06,3.2v.03c0,1.76,1.28,3.21,3.08,3.21s3.06-1.42,3.06-3.19Z"></path><path class="cls-1" d="m160.06,126.27h1.48l4.86,6.27v-6.27h1.57v9.07h-1.33l-5-6.45v6.45h-1.57v-9.07Z"></path><path class="cls-1" d="m170.9,134.01l.96-1.14c.87.75,1.75,1.18,2.86,1.18.98,0,1.61-.47,1.61-1.14v-.03c0-.65-.36-1-2.05-1.39-1.93-.47-3.02-1.04-3.02-2.71v-.03c0-1.55,1.29-2.63,3.1-2.63,1.32,0,2.37.4,3.29,1.14l-.86,1.21c-.82-.61-1.63-.93-2.46-.93-.93,0-1.48.48-1.48,1.08v.03c0,.7.41,1.01,2.16,1.42,1.92.47,2.9,1.15,2.9,2.66v.03c0,1.7-1.33,2.71-3.24,2.71-1.39,0-2.69-.48-3.78-1.45Z"></path><path class="cls-1" d="m183.04,127.74h-2.88v-1.48h7.36v1.48h-2.88v7.59h-1.61v-7.59Z"></path><path class="cls-1" d="m190.42,126.27h4.04c1.14,0,2.03.34,2.62.91.48.49.75,1.17.75,1.96v.03c0,1.49-.89,2.38-2.15,2.75l2.45,3.43h-1.89l-2.23-3.16h-1.99v3.16h-1.59v-9.07Zm3.92,4.5c1.14,0,1.87-.6,1.87-1.52v-.03c0-.97-.7-1.5-1.88-1.5h-2.32v3.04h2.33Z"></path><path class="cls-1" d="m200.86,131.49v-5.22h1.59v5.16c0,1.68.87,2.58,2.29,2.58s2.28-.84,2.28-2.51v-5.22h1.59v5.14c0,2.71-1.53,4.07-3.9,4.07s-3.86-1.36-3.86-3.99Z"></path><path class="cls-1" d="m211.62,130.83v-.03c0-2.58,1.93-4.69,4.68-4.69,1.67,0,2.68.58,3.55,1.41l-1.02,1.18c-.73-.67-1.5-1.13-2.54-1.13-1.72,0-2.99,1.42-2.99,3.2v.03c0,1.78,1.26,3.21,2.99,3.21,1.11,0,1.83-.44,2.6-1.17l1.02,1.04c-.95.98-1.98,1.61-3.68,1.61-2.64,0-4.61-2.06-4.61-4.66Z"></path><path class="cls-1" d="m225.03,127.74h-2.88v-1.48h7.36v1.48h-2.88v7.59h-1.61v-7.59Z"></path><path class="cls-1" d="m232.5,126.27h1.59v9.07h-1.59v-9.07Z"></path><path class="cls-1" d="m237.33,130.83v-.03c0-2.55,1.97-4.69,4.75-4.69s4.73,2.11,4.73,4.66v.03c0,2.55-1.97,4.69-4.75,4.69s-4.73-2.11-4.73-4.66Zm7.81,0v-.03c0-1.76-1.28-3.23-3.08-3.23s-3.06,1.44-3.06,3.2v.03c0,1.76,1.28,3.21,3.08,3.21s3.06-1.42,3.06-3.19Z"></path><path class="cls-1" d="m249.96,126.27h1.48l4.86,6.27v-6.27h1.57v9.07h-1.33l-5-6.45v6.45h-1.57v-9.07Z"></path><polygon class="cls-1" points="249.43 55.43 249.43 27.66 235.04 27.66 235.04 42.48 191.4 3.21 131.08 57.94 57.01 57.94 38.9 75.32 138.18 75.32 191.77 26.76 247.95 76.8 272.37 76.71 249.43 55.43"></polygon><polygon class="cls-2" points="156.68 0 172.75 14.2 160.6 25.98 157.8 23.36 125.17 53.75 99.01 53.75 156.68 0"></polygon></g></svg>